<svg xmlns="http://www.w3.org/2000/svg" viewBox="0 0 24 24" id="brightness"><g data-name="43. Brightness"><path d="M12.02 2a1 1 0 0 0 0-2h-.01a1 1 0 0 0 .01 2zm7.78 1.222h-.01a1.005 1.005 0 1 0 .01 0zM23.02 11h-.01a1.005 1.005 0 1 0 .01 0zm-3.22 7.778h-.01a1.005 1.005 0 1 0 .01 0zM12.02 22h-.01a1.005 1.005 0 1 0 .01 0zm-7.778-3.222h-.011a1.006 1.006 0 1 0 .011 0zM1.02 11h-.01a1.005 1.005 0 1 0 .01 0zm3.222-5.778a1 1 0 0 0 0-2h-.011a1 1 0 0 0 .011 2zM19 15c.141 0 .28-.012.418-.021a7.974 7.974 0 0 0-4.456-10.4A5.991 5.991 0 0 0 19 15z"></path><path d="M11 9a7.957 7.957 0 0 1 1.737-4.963A8.153 8.153 0 0 0 12 4a8 8 0 1 0 6.262 12.963A8.009 8.009 0 0 1 11 9Z"></path></g></svg>