<svg xmlns="http://www.w3.org/2000/svg" viewBox="0 0 24 24" id="emergency-bell"><path fill="#E6E6E6" d="m18.299 17.91-.498-.867A6.376 6.376 0 0 0 21 11.523V9.5h1v2.024a7.377 7.377 0 0 1-3.701 6.386z"></path><path fill="#F2F2F2" d="M21.5 10c-.827 0-1.5-.673-1.5-1.5S20.673 7 21.5 7s1.5.673 1.5 1.5-.673 1.5-1.5 1.5z"></path><linearGradient id="a" x1="-27.448" x2="-25.77" y1="-328.448" y2="-326.77" gradientTransform="rotate(180 -2.5 -159.5)" gradientUnits="userSpaceOnUse"><stop offset="0" stop-opacity=".1"></stop><stop offset="1" stop-opacity="0"></stop></linearGradient><path fill="url(#a)" d="M21.5 7c.827 0 1.5.673 1.5 1.5s-.673 1.5-1.5 1.5S20 9.327 20 8.5 20.673 7 21.5 7z"></path><path fill="#EE3124" d="m16.522 14.445-.143-.13H3.621l-.143.13A7.508 7.508 0 0 0 1 20v3a1 1 0 0 0 1 1h16a1 1 0 0 0 1-1v-3a7.51 7.51 0 0 0-2.478-5.555z"></path><path d="M18 23.75H2a1 1 0 0 1-1-1V23a1 1 0 0 0 1 1h16a1 1 0 0 0 1-1v-.25a1 1 0 0 1-1 1z" opacity=".1"></path><path fill="#EE3124" d="M10 0C5.038 0 1 4.038 1 9s4.038 9 9 9 9-4.038 9-9-4.038-9-9-9z"></path><path fill="#FFF" d="M10 .25c4.92 0 8.932 3.846 9 8.75 0-4.962-4.038-9-9-9S1 4.038 1 9C1.068 4.096 5.08.25 10 .25z" opacity=".2"></path><path d="M10 17.75c-4.92 0-8.932-3.846-9-8.75 0 4.962 4.038 9 9 9s9-4.038 9-9c-.068 4.904-4.08 8.75-9 8.75z" opacity=".1"></path><circle cx="10" cy="9" r="2" fill="#EE3124"></circle><circle cx="10" cy="9" r="2" fill="#F2F2F2"></circle><linearGradient id="b" x1="-39.264" x2="-37.026" y1="-328.264" y2="-326.026" gradientTransform="rotate(180 -14 -159)" gradientUnits="userSpaceOnUse"><stop offset="0" stop-opacity=".1"></stop><stop offset="1" stop-opacity="0"></stop></linearGradient><circle cx="10" cy="9" r="2" fill="url(#b)"></circle><path fill="#EE3124" d="M15 22c-.551 0-1-.449-1-1s.449-1 1-1 1 .449 1 1-.449 1-1 1z"></path><path d="M15 22c-.551 0-1-.449-1-1s.449-1 1-1 1 .449 1 1-.449 1-1 1z" opacity=".1"></path><linearGradient id="c" x1="7.703" x2="16.971" y1="12.534" y2="21.802" gradientUnits="userSpaceOnUse"><stop offset="0" stop-opacity=".1"></stop><stop offset="1" stop-opacity="0"></stop></linearGradient><path fill="url(#c)" d="M16.87 14.804c-.162.191-.326.38-.506.56-3.509 3.509-9.219 3.509-12.728 0L12.272 24H18a1 1 0 0 0 1-1v-3c0-1.94-.778-3.8-2.13-5.196z"></path><linearGradient id="d" x1="10.336" x2="15.366" y1="9.336" y2="14.366" gradientUnits="userSpaceOnUse"><stop offset="0" stop-opacity=".1"></stop><stop offset="1" stop-opacity="0"></stop></linearGradient><path fill="url(#d)" d="M11.414 7.586A2.002 2.002 0 0 1 10 11a1.994 1.994 0 0 1-1.414-.586l6.196 6.197a9.056 9.056 0 0 0 2.829-2.829l-6.197-6.196z"></path><linearGradient id="e" x1=".138" x2="21.135" y1="8.854" y2="18.644" gradientUnits="userSpaceOnUse"><stop offset="0" stop-color="#FFF" stop-opacity=".2"></stop><stop offset="1" stop-color="#FFF" stop-opacity="0"></stop></linearGradient><path fill="url(#e)" d="M23 8.5c0-.827-.673-1.5-1.5-1.5S20 7.673 20 8.5c0 .651.42 1.2 1 1.408v1.616a6.368 6.368 0 0 1-2.759 5.226 7.529 7.529 0 0 0-1.368-1.953A8.955 8.955 0 0 0 19 9c0-4.962-4.038-9-9-9S1 4.038 1 9c0 2.208.803 4.23 2.127 5.797A7.495 7.495 0 0 0 1 20v3a1 1 0 0 0 1 1h16a1 1 0 0 0 1-1v-3c0-.79-.127-1.57-.37-2.31A7.368 7.368 0 0 0 22 11.524V9.908c.58-.207 1-.757 1-1.408z"></path></svg>