<svg xmlns="http://www.w3.org/2000/svg" viewBox="0 0 24 24" id="scan-qrcode"><g data-name="15"><rect width="10" height="10" x="7" y="7" fill="#bbdefb" rx="1" ry="1"></rect><path fill="#1e88e5" d="M3 9A1 1 0 0 1 2 8V3A1 1 0 0 1 3 2H8A1 1 0 0 1 8 4H4V8A1 1 0 0 1 3 9zM8 22H3a1 1 0 0 1-1-1V16a1 1 0 0 1 2 0v4H8a1 1 0 0 1 0 2zM21 22H16a1 1 0 0 1 0-2h4V16a1 1 0 0 1 2 0v5A1 1 0 0 1 21 22zM21 9a1 1 0 0 1-1-1V4H16a1 1 0 0 1 0-2h5a1 1 0 0 1 1 1V8A1 1 0 0 1 21 9zM18 13H6a1 1 0 0 1 0-2H18a1 1 0 0 1 0 2z"></path></g></svg>