<svg xmlns="http://www.w3.org/2000/svg" enable-background="new 0 0 1920 1080" viewBox="0 0 1920 1080" id="camping"><path fill="#2a94f4" d="M269 997.1s-30.6-440.6 173.5-698.7 533.8-377.3 719-204.1c382.2 357.4 673.7 867.1 405.6 902.8s-1298.1 0-1298.1 0" opacity=".1"></path><path fill="#0b4870" d="M902.9 997.1H646.1l258.5-578.5 256.9 578.5z"></path><ellipse cx="902.4" cy="1004.8" fill="#2a94f4" opacity=".1" rx="732" ry="74.9"></ellipse><g><path fill="#b97a59" d="m1015.4 772.7 10.7 7.1c1.8 1.2 4-.9 2.9-2.7l-1.2-2.1c-1.9-3.3 1.2-7.2 4.8-6l14.9 4.9c5.6 2.6 12.1-1.2 12.6-7.3.4-4.2-6.6-9.3-9.5-10.8-6.9-3.6-36.4-14.8-36.4-14.8s-8.5 2.1-8.9 13c-.3 7.4 3.8 14.5 10.1 18.7z"></path><path fill="#2a94f4" d="M857.7 974s38.4-97.7 45.9-117.1c-5.8-64.1-55.7-119.7-55.7-119.7s-12.7-19.8-27.3-17.7c-4.3.6-8.8 2.8-12.9 6.4-3.3-18.9-15.6-33.9-47.4-32.5 0 0-48.3 42.5-39.2 165.4-.4 23.7-44.4 156.2-44.4 156.2l63.6-1.5-33.2-19s52.4-97.3 64.6-120.4c12.2-23.1 23.9-79.2 23.9-79.2s.8-1.8 2-4.9c15.7 37.4 59.3 74.4 59.3 74.4l-25 129.3 58.5-1.2-32.7-18.5z"></path><path fill="#0e538c" d="M857.7 974s-11.5 2.6-21.9.1l-3.8 19.6 58.5-1.2-32.8-18.5zM707.2 994.5s-14.2 4-23.7.1c-4 12.4-6.7 20.4-6.7 20.4l63.6-1.5-33.2-19zM900.2 617.1s23.7 26.7 43.1 59.2c19.3 32.4 71.9 63.6 71.9 63.6s-3.5 19.5-9.3 18.1c-5.8-1.4-80.7-41.4-80.7-41.4s-40.7-33.6-45.9-53.1c-3-11.7 5.2-43.4 20.9-46.4z"></path><path fill="#0e538c" d="M839.8 587.2s51.1 13.7 60.4 29.9-11.5 59-34.9 74.7c-11.6 8.8-17.4 45.7-17.4 45.7s-63.5 3-87.7-43.2c6.4-11.3 55.5-93.8 79.6-107.1z"></path><path fill="#aa6d52" d="m871.2 582.9-15.8 24.2s-1.6 12.8 12.1 16.1c13.6 3.3 17.7-4.1 17.7-4.1l4.7-31.8c-.1 0-12.1-6.5-18.7-4.4z"></path><path fill="#b97a59" d="M876.4 538.6s-25 19.6-24.8 29.4c.2 9.7 9.4 20.8 35 29.6 9.3.7 25.3-24 26.3-29.7 6.8-37.2-25.4-33.4-36.5-29.3z"></path><path fill="#0e538c" d="M864.9 528c6.2 11.4 17.8 22.9 29.7 26.5 7.2 2.1 8.3 8.9 5.3 11.9-3.1 3.1-13.5 8-7.8 10.5s8.4-7 11.2-1.6c2.8 5.4-9.6 13.2-6 17 3.6 3.8 20.2 4 20-7.4-.2-11.3 6.6-14.7 16.9-17.4 10.2-2.7 9.2-22.5-2.6-24.1-11.8-1.6-14.9-9.3-20.7-19.8-7.1-12.9-17.4.6-27.1-5.5-3.8-2.4-5.3-8-9.5-9.8-9.9-4.1-14.7 7.4-11.6 14.8.6 1.8 1.3 3.4 2.2 4.9z"></path><path fill="#fcd2b1" d="m662.3 682.4-6.3 32.2-7.8-15.8-34.8 18.5s3.9-19.4 5.6-24.4c1.6-5 25.8-21.2 32.1-21.5 6.3-.2 12.8 3.1 11.2 11z"></path><path fill="#0e538c" d="M839.9 587s-70.7-5.6-98.6 10.3c-24.3 12.3-90.2 74.2-90.2 74.2s5 9 11.3 11c6.2-3.7 77.8-47.1 77.8-47.1s54.2 4.8 75.7.5c24.5-5 37.3-35.4 24-48.9z"></path></g><g><path fill="#ffbe55" d="M904.6 107.2C740.5 354.1 242.2 997.1 242.2 997.1h405.6l256.8-578.4 256.8 578.4H1567s-498.3-643-662.4-889.9z"></path><path fill="#fff" d="M904.6 418.6 647.8 997.1s-1.3-158.1-83.6-177.4c0 0 122.9-15.4 340.4-401.1zM904.6 418.6 1161.4 997s1.3-158.1 83.6-177.4c0 .1-122.9-15.3-340.4-401z" opacity=".4"></path><path fill="#0e538c" d="M221.9 949.1h67.8v27.8h-67.8z" transform="rotate(-88.855 255.788 962.931)"></path><path fill="#0e538c" d="M246.5 884.8h20.4V953h-20.4z" transform="rotate(-88.855 256.664 918.892)"></path><path fill="#0e538c" d="M1529.8 929h27.7v67.8h-27.7z"></path><path fill="#0e538c" d="M1509.6 908.7h68.2v20.4h-68.2z"></path><path fill="#2a94f4" d="M1405.9 799.9c0 10-8.1 18.1-18.1 18.1h-129.3c-10 0-18.1-8.1-18.1-18.1v-12.7c0-10 8.1-18.1 18.1-18.1h129.3c10 0 18.1 8.1 18.1 18.1v12.7z"></path><path fill="#cce9ff" d="M1393 974.5c0 3-2.4 5.4-5.4 5.4h-127.4c-3 0-5.4-2.4-5.4-5.4v-123c0-3 2.4-5.4 5.4-5.4h127.4c3 0 5.4 2.4 5.4 5.4v123zM1387.5 1005.2c0 5-4.3 9.1-9.7 9.1h-108c-5.3 0-9.7-4.1-9.7-9.1V980h127.3v25.2z"></path><path fill="#2a94f4" d="M1396.5 828.2c0-12.1-10.9-21.9-24.3-21.9h-96.8c-13.4 0-24.3 9.8-24.3 21.9 0 0 .2 32.6.5 33 4.8 17.7 35.2 31.4 72.1 31.4 36.9 0 67.3-13.7 72.1-31.4.5-.5.7-33 .7-33z"></path><path fill="#0e538c" d="M1390.1 856.5h-.3c-.5-.2-.7-.7-.6-1.1.2-.6.3-1.1.5-1.7.1-.5.6-.8 1.1-.7.5.1.8.6.7 1.1-.1.6-.3 1.2-.5 1.8-.2.4-.5.6-.9.6zM1324.1 888.1h-2c-.5 0-.9-.4-.9-.9s.4-.9.9-.9h3.5c.5 0 .9.4.9.9s-.4.9-.9.9h-1.5zm-7.3-.2-3.6-.3c-.5 0-.9-.5-.8-1 0-.5.5-.9 1-.8 1.2.1 2.3.2 3.5.3.5 0 .9.5.8 1 0 .4-.4.8-.9.8zm14.1 0c-.5 0-.9-.4-.9-.8 0-.5.3-.9.8-1 1.2-.1 2.3-.2 3.5-.3.5-.1.9.3 1 .8 0 .5-.3.9-.8 1-1.2.1-2.3.2-3.6.3zm-22.8-.9h-.1c-1.2-.2-2.3-.4-3.5-.6-.5-.1-.8-.6-.7-1 .1-.5.5-.8 1-.7 1.1.2 2.3.4 3.5.6.5.1.8.5.8 1-.2.3-.6.7-1 .7zm31.6 0c-.4 0-.8-.3-.9-.8-.1-.5.3-1 .8-1 1.2-.2 2.3-.4 3.5-.6.5-.1 1 .2 1 .7.1.5-.2 1-.7 1.1-1.2.2-2.3.4-3.5.6h-.2zm-40.3-1.6h-.2c-1.2-.3-2.3-.6-3.5-.9a.8.8 0 0 1-.6-1.1c.1-.5.6-.8 1.1-.6 1.1.3 2.2.6 3.4.8.5.1.8.6.7 1.1-.1.4-.5.7-.9.7zm48.9-.1c-.4 0-.8-.3-.9-.7-.1-.5.2-1 .7-1.1 1.1-.3 2.3-.5 3.4-.8.5-.1 1 .2 1.1.6s-.2 1-.6 1.1c-1.1.3-2.3.6-3.4.9h-.3zm-57.4-2.3h-.3c-1.1-.4-2.3-.8-3.4-1.2-.5-.2-.7-.7-.5-1.2.2-.5.7-.7 1.2-.5 1.1.4 2.2.8 3.3 1.1.5.2.7.7.6 1.1-.1.5-.5.7-.9.7zm65.9 0c-.4 0-.7-.2-.9-.6-.2-.5.1-1 .6-1.1l3.3-1.2c.5-.2 1 .1 1.2.5.2.5-.1 1-.5 1.2-1.1.4-2.2.8-3.4 1.2h-.3zm-74.1-3.1c-.1 0-.2 0-.4-.1-1.1-.5-2.2-1-3.2-1.5-.4-.2-.6-.8-.4-1.2.2-.4.8-.6 1.2-.4 1 .5 2.1 1 3.1 1.5.5.2.7.7.5 1.2-.1.3-.4.5-.8.5zm82.3-.1c-.3 0-.7-.2-.8-.5-.2-.5 0-1 .5-1.2 1.1-.5 2.1-1 3.1-1.5.4-.2 1 0 1.2.4.2.4 0 1-.4 1.2-1 .5-2.1 1-3.2 1.5-.1.1-.2.1-.4.1zm-90.1-4c-.2 0-.3 0-.5-.1-1-.6-2-1.3-3-1.9-.4-.3-.5-.8-.2-1.3.3-.4.8-.5 1.3-.2.9.6 1.9 1.3 2.9 1.9.4.3.6.8.3 1.2-.2.3-.5.4-.8.4zm97.9 0c-.3 0-.6-.2-.8-.4-.3-.4-.1-1 .3-1.2 1-.6 2-1.2 2.9-1.9.4-.3 1-.2 1.3.2.3.4.2 1-.2 1.3-1 .7-2 1.3-3 1.9-.1 0-.3.1-.5.1zm-105.1-5.1c-.2 0-.4-.1-.6-.2-.9-.8-1.8-1.6-2.6-2.4-.4-.4-.4-.9 0-1.3s.9-.4 1.3 0c.8.8 1.6 1.6 2.5 2.3.4.3.4.9.1 1.3-.2.2-.4.3-.7.3zm112.3 0c-.3 0-.5-.1-.7-.3-.3-.4-.3-1 .1-1.3.9-.8 1.7-1.6 2.5-2.3.4-.4.9-.4 1.3 0s.4.9 0 1.3c-.8.8-1.7 1.6-2.6 2.4-.2.1-.4.2-.6.2zm-118.3-6.4c-.3 0-.6-.1-.7-.4-.7-1-1.4-2-2-3-.2-.4-.1-1 .3-1.2.4-.2 1-.1 1.2.3.6 1 1.2 1.9 1.9 2.9.3.4.2 1-.2 1.3-.1.1-.3.1-.5.1zm124.3 0c-.2 0-.4-.1-.5-.2-.4-.3-.5-.9-.2-1.3.7-.9 1.3-1.9 1.9-2.9.2-.4.8-.6 1.2-.3.4.2.6.8.3 1.2-.6 1-1.3 2-2 3-.1.3-.4.5-.7.5zM1257.6 856.5c-.4 0-.7-.2-.9-.6-.2-.6-.4-1.2-.5-1.8-.1-.5.2-1 .7-1.1.5-.1 1 .2 1.1.7.1.6.3 1.1.5 1.7.2.5-.1 1-.6 1.1h-.3z"></path><path fill="#cce9ff" d="M1376.9 966.9c0 3-2.4 5.4-5.4 5.4h-98.1c-3 0-5.4-2.4-5.4-5.4v-38.6h109v38.6z"></path><path fill="#0e538c" d="M1277.1 947.9h2v19.4h-2zM1365.3 947.9h2v19.4h-2z"></path><path fill="#2a94f4" d="M1376.9 932.2c0 10-8.1 18.1-18.1 18.1h-72.7c-10 0-18.1-8.1-18.1-18.1v-25.9h109v25.9z"></path><path fill="#0e538c" d="M1353.9 945.8h-3.6c-.5 0-.9-.4-.9-.9s.4-.9.9-.9h3.6c.5 0 .9.4.9.9s-.4.9-.9.9zm-9 0h-3.6c-.5 0-.9-.4-.9-.9s.4-.9.9-.9h3.6c.5 0 .9.4.9.9s-.4.9-.9.9zm-9.1 0h-3.6c-.5 0-.9-.4-.9-.9s.4-.9.9-.9h3.6c.5 0 .9.4.9.9s-.4.9-.9.9zm-9.1 0h-3.6c-.5 0-.9-.4-.9-.9s.4-.9.9-.9h3.6c.5 0 .9.4.9.9s-.4.9-.9.9zm-9 0h-3.6c-.5 0-.9-.4-.9-.9s.4-.9.9-.9h3.6c.5 0 .9.4.9.9s-.4.9-.9.9zm-9.1 0h-3.6c-.5 0-.9-.4-.9-.9s.4-.9.9-.9h3.6c.5 0 .9.4.9.9s-.4.9-.9.9zm-9.1 0h-3.6c-.5 0-.9-.4-.9-.9s.4-.9.9-.9h3.6c.5 0 .9.4.9.9s-.4.9-.9.9zm-9 0h-3.6c-.5 0-.9-.4-.9-.9s.4-.9.9-.9h3.6c.5 0 .9.4.9.9s-.4.9-.9.9zm68.9 0c-.5 0-.9-.4-.9-.9s.4-.9.9-.9c1.1 0 2.2-.3 3.3-.6.5-.2 1 .1 1.2.6.2.5-.1 1-.6 1.1-1.3.4-2.6.7-3.9.7zm-77.9-.8c-.1 0-.2 0-.3-.1-1.2-.5-2.3-1.1-3.4-1.9-.4-.3-.5-.9-.2-1.3s.9-.5 1.3-.2c.9.7 1.9 1.2 2.9 1.6.5.2.7.7.5 1.2-.1.4-.4.7-.8.7zm86-2.6c-.2 0-.5-.1-.7-.3-.3-.4-.3-.9 0-1.3.8-.8 1.5-1.7 2.1-2.6.3-.4.8-.6 1.2-.3.4.3.6.8.3 1.2-.7 1.1-1.5 2.1-2.4 3 0 .2-.3.3-.5.3zm-92.6-3.3c-.3 0-.6-.2-.8-.5-.6-1.1-1.1-2.4-1.3-3.6-.1-.5.2-1 .7-1.1.5-.1 1 .2 1.1.7.2 1.1.6 2.2 1.1 3.2.2.4.1 1-.4 1.2-.1 0-.3.1-.4.1zm96.6-4.7c-.1 0-.1 0 0 0-.6-.1-1-.5-.9-1 0-.4.1-.8.1-1.2v-2.3c0-.5.4-.9.9-.9s.9.4.9.9v2.3c0 .5 0 .9-.1 1.4-.1.5-.5.8-.9.8zm-98.1-4.1c-.5 0-.9-.4-.9-.9v-3.6c0-.5.4-.9.9-.9s.9.4.9.9v3.6c0 .5-.4.9-.9.9zm98.1-4.9c-.5 0-.9-.4-.9-.9v-3.6c0-.5.4-.9.9-.9s.9.4.9.9v3.6c0 .4-.4.9-.9.9zm-98.1-4.2c-.5 0-.9-.4-.9-.9v-3.6c0-.5.4-.9.9-.9s.9.4.9.9v3.6c0 .5-.4.9-.9.9zm98.1-4.9c-.5 0-.9-.4-.9-.9v-3.6c0-.5.4-.9.9-.9s.9.4.9.9v3.6c0 .5-.4.9-.9.9zM1376.9 966.9c0 3-2.4 5.4-5.4 5.4h-98.1c-3 0-5.4-2.4-5.4-5.4v-1h109v1zM1292.1 930.1c0 2.8-2.3 5.1-5.1 5.1s-5.1-2.3-5.1-5.1 2.3-5.1 5.1-5.1c2.8-.1 5.1 2.2 5.1 5.1zM1362.4 930.1c0 2.8-2.3 5.1-5.1 5.1s-5.1-2.3-5.1-5.1 2.3-5.1 5.1-5.1c2.8-.1 5.1 2.2 5.1 5.1zM1290.6 910.3c0 3.9-2.4 7.1-5.4 7.1h-.6c-3 0-5.4-3.2-5.4-7.1v-144h11.5v144zM1365.3 910.3c0 3.9-2.4 7.1-5.4 7.1h-.6c-3 0-5.4-3.2-5.4-7.1v-144h11.5v144z"></path><path fill="#cce9ff" d="M1277.3 828.9h15v3.6h-15zM1277.3 845.3h15v3.6h-15zM1352.1 828.9h15v3.6h-15zM1352.1 845.3h15v3.6h-15z"></path><path fill="#0e538c" d="M1310.7 917.8h23.6v7.8h-23.6zM1309 806.2c.5-6.8 6.1-12.1 13-12.1s12.5 5.4 13 12.1h5.4c-.5-9.8-8.6-17.6-18.5-17.6s-18 7.8-18.5 17.6h5.6z"></path></g></svg>