<svg xmlns="http://www.w3.org/2000/svg" viewBox="0 0 48 48"><path fill="#1E5080" d="M38.4 29h-4.3v-1.5h4.3c4.1 0 7.3-3.3 7.3-7.4 0-3.4-2.3-6.4-5.7-7.2l-.5-.1-.1-.5c-.3-2.4-2.3-4.2-4.7-4.2-1.1 0-2.2.4-3.1 1.2l-.8.7-.3-1c-1.8-4.1-5.8-6.7-10.3-6.7-5.7 0-10.5 4.3-11.1 10l-.1.5-.6.1c-3.6.6-6.2 3.6-6.2 7.2 0 4.1 3.3 7.4 7.4 7.4h4.3V29H9.6c-4.9 0-8.9-4-8.9-8.9 0-4.2 2.9-7.7 6.9-8.6C8.6 5.3 13.9.8 20.2.8c4.7 0 9.1 2.6 11.2 6.8 1-.6 2.1-1 3.3-1 3 0 5.6 2.1 6.1 5 3.8 1.1 6.4 4.5 6.4 8.5.1 4.9-3.9 8.9-8.8 8.9z"/><path fill="#1E5080" d="m13 12.7-1.5-.2c.5-4.4 4.2-7.7 8.6-7.7v1.5c-3.6 0-6.7 2.7-7.1 6.4z"/><path fill="#568DC9" d="M24 47.3c-7 0-12.7-5.7-12.7-12.7 0-2.4.7-4.7 1.9-6.8 2.3-3.7 6.3-5.9 10.7-5.9 4.4 0 8.4 2.2 10.8 5.9 1.3 2 1.9 4.4 1.9 6.8.1 7-5.6 12.7-12.6 12.7zm0-23.9c-3.9 0-7.4 2-9.5 5.2-1.1 1.8-1.7 3.8-1.7 6 0 6.2 5 11.2 11.2 11.2 6.2 0 11.2-5 11.2-11.2 0-2.1-.6-4.2-1.7-6-2.1-3.3-5.6-5.2-9.5-5.2z"/><path fill="#CED6ED" d="m30 38.2-3.7-3.6 3.7-3.7-2.3-2.3-3.7 3.6-3.7-3.6-2.3 2.3 3.7 3.7-3.7 3.6 2.3 2.4 3.7-3.7 3.7 3.7z"/><path fill="#568DC9" d="M27.7 41.6 24 38l-3.7 3.7-3.4-3.4 3.7-3.7-3.7-3.7 3.4-3.4 3.7 3.7 3.7-3.7 3.4 3.4-3.7 3.7 3.7 3.7-3.4 3.3zm-8.6-3.4 1.3 1.3 3.7-3.7 3.7 3.7 1.3-1.3-3.7-3.7 3.7-3.7-1.3-1.3-3.8 3.8-3.7-3.7-1.3 1.3 3.7 3.7-3.6 3.6z"/></svg>