<svg xmlns="http://www.w3.org/2000/svg" viewBox="0 0 32 32"><path fill="#595bd4" d="M27.878 13.601a12.375 12.375 0 0 1-12.375 12.375A12.375 12.375 0 0 1 3.128 13.601 12.375 12.375 0 0 1 15.503 1.226a12.375 12.375 0 0 1 12.375 12.375z" class="color8be1fc svgShape"></path><g fill="#fe9526" color="#000" font-family="sans-serif" font-weight="400" class="color3a3640 svgShape"><path style="line-height:normal;text-indent:0;text-align:start;text-decoration-line:none;text-decoration-style:solid;text-decoration-color:#000;text-transform:none;white-space:normal;isolation:auto;mix-blend-mode:normal;solid-color:#000;solid-opacity:1" d="M749.1 1622.862c-.823 0-1.5.678-1.5 1.5 0 .823.677 1.5 1.5 1.5.822 0 1.5-.677 1.5-1.5 0-.822-.678-1.5-1.5-1.5zm0 1c.282 0 .5.218.5.5 0 .282-.218.5-.5.5a.493.493 0 0 1-.5-.5c0-.282.218-.5.5-.5z" overflow="visible" transform="translate(-742.478 -1595.087)" fill="#53d86a" class="color000000 svgShape"></path><path fill-rule="evenodd" style="line-height:normal;text-indent:0;text-align:start;text-decoration-line:none;text-decoration-style:solid;text-decoration-color:#000;text-transform:none;white-space:normal;isolation:auto;mix-blend-mode:normal;solid-color:#000;solid-opacity:1" d="M749.092 1618.862a.5.5 0 0 0-.492.508v1.986a.5.5 0 1 0 1 0v-1.986a.5.5 0 0 0-.508-.508z" overflow="visible" transform="translate(-742.478 -1595.087)" fill="#53d86a" class="color000000 svgShape"></path><path style="line-height:normal;text-indent:0;text-align:start;text-decoration-line:none;text-decoration-style:solid;text-decoration-color:#000;text-transform:none;white-space:normal;isolation:auto;mix-blend-mode:normal;solid-color:#000;solid-opacity:1" d="M758.1 1622.862c-.823 0-1.5.678-1.5 1.5 0 .823.677 1.5 1.5 1.5.822 0 1.5-.677 1.5-1.5 0-.822-.678-1.5-1.5-1.5zm0 1c.282 0 .5.218.5.5 0 .282-.218.5-.5.5a.493.493 0 0 1-.5-.5c0-.282.218-.5.5-.5z" overflow="visible" transform="translate(-742.478 -1595.087)" fill="#53d86a" class="color000000 svgShape"></path><path fill-rule="evenodd" style="line-height:normal;text-indent:0;text-align:start;text-decoration-line:none;text-decoration-style:solid;text-decoration-color:#000;text-transform:none;white-space:normal;isolation:auto;mix-blend-mode:normal;solid-color:#000;solid-opacity:1" d="M758.092 1618.862a.5.5 0 0 0-.492.508v1.986a.5.5 0 1 0 1 0v-1.986a.5.5 0 0 0-.508-.508z" overflow="visible" transform="translate(-742.478 -1595.087)" fill="#53d86a" class="color000000 svgShape"></path><path style="line-height:normal;text-indent:0;text-align:start;text-decoration-line:none;text-decoration-style:solid;text-decoration-color:#000;text-transform:none;white-space:normal;isolation:auto;mix-blend-mode:normal;solid-color:#000;solid-opacity:1" d="M753.6 1620.862c-.823 0-1.5.678-1.5 1.5 0 .823.677 1.5 1.5 1.5.822 0 1.5-.677 1.5-1.5 0-.822-.678-1.5-1.5-1.5zm0 1c.282 0 .5.218.5.5 0 .282-.218.5-.5.5a.493.493 0 0 1-.5-.5c0-.282.218-.5.5-.5z" overflow="visible" transform="translate(-742.478 -1595.087)" fill="#53d86a" class="color000000 svgShape"></path><path fill-rule="evenodd" style="line-height:normal;text-indent:0;text-align:start;text-decoration-line:none;text-decoration-style:solid;text-decoration-color:#000;text-transform:none;white-space:normal;isolation:auto;mix-blend-mode:normal;solid-color:#000;solid-opacity:1" d="M753.592 1616.862a.5.5 0 0 0-.492.508v1.986a.5.5 0 1 0 1 0v-1.986a.5.5 0 0 0-.508-.508z" overflow="visible" transform="translate(-742.478 -1595.087)" fill="#53d86a" class="color000000 svgShape"></path><path style="line-height:normal;text-indent:0;text-align:start;text-decoration-line:none;text-decoration-style:solid;text-decoration-color:#000;text-transform:none;white-space:normal;isolation:auto;mix-blend-mode:normal;solid-color:#000;solid-opacity:1" d="M762.6 1620.862c-.823 0-1.5.678-1.5 1.5 0 .823.677 1.5 1.5 1.5.822 0 1.5-.677 1.5-1.5 0-.822-.678-1.5-1.5-1.5zm0 1c.282 0 .5.218.5.5 0 .282-.218.5-.5.5a.493.493 0 0 1-.5-.5c0-.282.218-.5.5-.5z" overflow="visible" transform="translate(-742.478 -1595.087)" fill="#53d86a" class="color000000 svgShape"></path><path fill-rule="evenodd" style="line-height:normal;text-indent:0;text-align:start;text-decoration-line:none;text-decoration-style:solid;text-decoration-color:#000;text-transform:none;white-space:normal;isolation:auto;mix-blend-mode:normal;solid-color:#000;solid-opacity:1" d="M762.592 1616.862a.5.5 0 0 0-.492.508v1.986a.5.5 0 1 0 1 0v-1.986a.5.5 0 0 0-.508-.508z" overflow="visible" transform="translate(-742.478 -1595.087)" fill="#53d86a" class="color000000 svgShape"></path><path style="line-height:normal;text-indent:0;text-align:start;text-decoration-line:none;text-decoration-style:solid;text-decoration-color:#000;text-transform:none;white-space:normal;isolation:auto;mix-blend-mode:normal;solid-color:#000;solid-opacity:1" d="M759.925 1601.446a6.992 6.992 0 0 0-7.27 3.648 5.231 5.231 0 0 0-5.355 1.393 5.254 5.254 0 0 0-.971 5.814 5.253 5.253 0 0 0 5.043 3.05l7.48.01h.002a7.004 7.004 0 0 0 6.975-6.462 7.005 7.005 0 0 0-5.904-7.453zm-.155.988a5.993 5.993 0 0 1 5.06 6.389 5.992 5.992 0 0 1-5.976 5.539l-7.507-.01h-.028a4.248 4.248 0 0 1-4.082-2.471 4.248 4.248 0 0 1 .785-4.707c1.113-1.167 2.806-1.58 4.23-1.158a8.486 8.486 0 0 0-.216.738c-.137.622.812.87.973.23a5.995 5.995 0 0 1 6.761-4.552z" overflow="visible" transform="translate(-742.478 -1595.087)" fill="#53d86a" class="color000000 svgShape"></path><path d="M766.098 1596.865h-.047c-3.478.333-5.172 3.111-5.201 5.49-.01.667.992.681 1 .014.021-1.744 1.138-3.746 3.396-4.36a5.59 5.59 0 0 0-.324 1.851c0 2.785 2.144 5.151 4.953 5.472a4.582 4.582 0 0 1-3.434 1.53c-.364 0-.654-.026-1.007-.113-.675-.202-.927.843-.235.97.43.105.796.142 1.238.143h.002a5.602 5.602 0 0 0 4.842-2.762.5.5 0 0 0-.477-.75c-.09.01-.187.013-.293.014-2.545 0-4.59-2.015-4.59-4.503.002-.788.21-1.568.608-2.247a.5.5 0 0 0-.431-.752z" overflow="visible" style="line-height:normal;text-indent:0;text-align:start;text-decoration-line:none;text-decoration-style:solid;text-decoration-color:#000;text-transform:none;white-space:normal;isolation:auto;mix-blend-mode:normal;solid-color:#000;solid-opacity:1" transform="translate(-742.478 -1595.087)" fill="#53d86a" class="color000000 svgShape"></path></g></svg>