<svg xmlns="http://www.w3.org/2000/svg" width="655.359" height="655.359" fill-rule="evenodd" clip-rule="evenodd" image-rendering="optimizeQuality" shape-rendering="geometricPrecision" text-rendering="geometricPrecision" viewBox="0 0 6.827 6.827"><path fill="#1e88e5" d="M.853 4.397v.196c.432-.1.86-.015 1.292.073.259.053.536.113.801.106.187-.005.32-.045.492-.109a1.77 1.77 0 0 1 .598-.132c.409-.014.808.089 1.2.194.156.042.316.086.476.114a1.1 1.1 0 0 0 .261.02v-.213c-.275.012-.594-.081-.846-.149-.345-.092-.716-.192-1.076-.18a1.391 1.391 0 0 0-.469.107c-.09.033-.177.065-.27.088a1.63 1.63 0 0 1-.356.047c-.302.007-.6-.054-.895-.114-.393-.08-.814-.17-1.208-.048zm0-.588v.196c.432-.099.86-.014 1.292.074.259.053.536.112.801.106.187-.005.32-.046.492-.11a1.77 1.77 0 0 1 .598-.132c.409-.014.808.09 1.2.194.156.042.316.087.476.114a1.1 1.1 0 0 0 .261.02v-.212c-.275.011-.594-.082-.846-.15-.345-.092-.716-.192-1.076-.18a1.391 1.391 0 0 0-.469.108c-.09.033-.177.064-.27.087a1.63 1.63 0 0 1-.356.047c-.302.008-.6-.053-.895-.114-.393-.08-.814-.17-1.208-.048zm0-.587v.196c.432-.1.86-.015 1.292.074.259.052.536.112.801.105.187-.004.32-.045.492-.109a1.77 1.77 0 0 1 .598-.132c.409-.014.808.09 1.2.194.156.042.316.086.476.114a1.1 1.1 0 0 0 .261.02v-.212c-.275.01-.594-.082-.846-.15-.345-.092-.716-.192-1.076-.18a1.391 1.391 0 0 0-.469.107c-.09.033-.177.065-.27.088a1.63 1.63 0 0 1-.356.047c-.302.007-.6-.054-.895-.114-.393-.08-.814-.17-1.208-.048zm0-.391c.432-.1.86-.015 1.292.073.259.053.536.112.801.106.187-.005.32-.046.492-.11a1.77 1.77 0 0 1 .598-.132c.409-.014.808.09 1.2.195.156.041.316.086.476.114a1.1 1.1 0 0 0 .261.02v-.213c-.275.011-.594-.082-.846-.15-.345-.092-.716-.192-1.076-.18a1.391 1.391 0 0 0-.469.108c-.09.033-.177.064-.27.087a1.63 1.63 0 0 1-.356.047c-.302.008-.6-.053-.895-.113-.393-.08-.814-.17-1.208-.049v.197zm0-.588c.432-.1.86-.015 1.292.074.259.053.536.112.801.105.187-.004.32-.045.492-.109a1.77 1.77 0 0 1 .598-.132c.409-.014.808.09 1.2.194.156.042.316.086.476.114a1.1 1.1 0 0 0 .261.02v-.212c-.275.01-.594-.082-.846-.15-.345-.092-.716-.192-1.076-.18a1.391 1.391 0 0 0-.469.108c-.09.032-.177.064-.27.087a1.63 1.63 0 0 1-.356.047c-.302.007-.6-.054-.895-.114-.393-.08-.814-.17-1.208-.048v.196z"/><path fill="none" d="M0 0h6.827v6.827H0z"/></svg>