<svg xmlns="http://www.w3.org/2000/svg" viewBox="0 0 64 64"><path fill="#d6d4d2" d="M47.687 25.026a14.985 14.985 0 0 0-25.698-7.209A5.855 5.855 0 0 0 19 17a5.965 5.965 0 0 0-5.929 5.168A10.999 10.999 0 0 0 18 43h29a9 9 0 0 0 .687-17.974Z"/><path fill="#bdbdbd" d="M34.09 37.317c-10.658-3.021-18.276-10.576-19.472-18.385a5.95 5.95 0 0 0-1.547 3.236A10.999 10.999 0 0 0 18 43h29a9.008 9.008 0 0 0 8.86-7.471c-5.615 3.22-13.63 4.096-21.77 1.788Z"/><ellipse cx="36" cy="18" fill="#fffefd" rx="3" ry="6" transform="rotate(-74.664 36 18)"/><circle cx="43" cy="24" r="2" fill="#fffefd"/><path fill="#90caf9" d="M15.5 26h-9a4.5 4.5 0 0 0 0 9h9a4.5 4.5 0 0 0 0-9Z"/><path fill="#b8e2ff" d="M20 30.5a4.067 4.067 0 0 1-.03.5H11a3.999 3.999 0 0 1-4-4v-1h8.5a4.507 4.507 0 0 1 4.5 4.5Z"/><path fill="#90caf9" d="M58 37h-6.537A3.998 3.998 0 0 0 48 31H26a3.998 3.998 0 0 0-3.463 6H6a4 4 0 0 0 0 8h5.537A3.998 3.998 0 0 0 15 51h22a3.998 3.998 0 0 0 3.463-6H58a4 4 0 0 0 0-8Z"/><path fill="#b8e2ff" d="M62 41H40a3.999 3.999 0 0 1-4-4v-1a2.006 2.006 0 0 0-2-2h-3a2.996 2.996 0 0 1-3-3h20a3.994 3.994 0 0 1 3.46 6H58a3.999 3.999 0 0 1 4 4Z"/></svg>