<svg xmlns="http://www.w3.org/2000/svg" viewBox="0 0 24 24"><path fill="#595bd4" d="M2.722 20.052a.495.495 0 0 0-.526.051L.641 21.292c-.408.29-.641.73-.641 1.208 0 .827.673 1.5 1.5 1.5S3 23.327 3 22.5v-2a.5.5 0 0 0-.278-.448z" class="color303c42 svgShape"></path><path fill="#bbbcfb" d="M2 22.5a.5.5 0 0 1-1 0c0-.207.14-.337.225-.396l.016-.012.759-.58v.988z" class="colorbbdefb svgShape"></path><path fill="#595bd4" d="M12.722 20.052a.495.495 0 0 0-.526.051l-1.555 1.189c-.408.29-.641.73-.641 1.208 0 .827.673 1.5 1.5 1.5s1.5-.673 1.5-1.5v-2a.5.5 0 0 0-.278-.448z" class="color303c42 svgShape"></path><path fill="#bbbcfb" d="M12 22.5a.5.5 0 0 1-1 0c0-.207.14-.337.225-.396l.016-.012.759-.58v.988z" class="colorbbdefb svgShape"></path><path fill="#167ffc" d="M3 10c0-1.654 1.346-3 3-3a.5.5 0 1 0 0-1c-.145 0-.281.028-.422.043C6.018 3.17 8.512 1 11.5 1c2.323 0 4.429 1.378 5.41 3.461a4.971 4.971 0 0 0-.7.39.5.5 0 1 0 .559.828A3.978 3.978 0 0 1 19 5c2.206 0 4 1.794 4 4s-1.794 4-4 4h-1.058a3.51 3.51 0 0 0-.994-.677C16.608 9.313 14.06 7 11 7a5.992 5.992 0 0 0-5.278 3.185A4.482 4.482 0 0 0 4.5 10c-.52 0-1.012.106-1.478.27C3.012 10.178 3 10.086 3 10z" class="color64b5f6 svgShape"></path><path fill="#167ffc" d="M15.5 18h-11C2.57 18 1 16.43 1 14.5S2.57 11 4.5 11c.804 0 1.56.265 2.187.767a.5.5 0 1 0 .625-.78 4.453 4.453 0 0 0-.656-.434A4.994 4.994 0 0 1 11 8c2.412 0 4.428 1.73 4.88 4.038-.126-.013-.25-.038-.38-.038a.5.5 0 1 0 0 1c1.378 0 2.5 1.122 2.5 2.5S16.878 18 15.5 18z" class="color64b5f6 svgShape"></path><path d="M16.298 13.143a2.647 2.647 0 0 1 1.202 2.232C17.5 16.822 16.378 18 15 18h.5c1.378 0 2.5-1.122 2.5-2.5a2.495 2.495 0 0 0-1.702-2.357z" opacity=".1" fill="#000000" class="color000000 svgShape"></path><path fill="#53d86a" d="M1.5 14.5c0-1.852 1.451-3.358 3.274-3.477-.091-.007-.18-.023-.274-.023C2.57 11 1 12.57 1 14.5S2.57 18 4.5 18H5c-1.93 0-3.5-1.57-3.5-3.5z" opacity=".2" class="colorffffff svgShape"></path><path d="M19 5c-.119 0-.235.016-.352.026C20.732 5.16 22.39 6.882 22.39 9c0 2.122-1.666 3.847-3.757 3.975l.015.025H19c2.206 0 4-1.794 4-4s-1.794-4-4-4z" opacity=".1" fill="#000000" class="color000000 svgShape"></path><path fill="#53d86a" d="M11.5 8.5c1.261 0 2.407.48 3.285 1.263A4.945 4.945 0 0 0 11 8a4.994 4.994 0 0 0-4.344 2.553c.202.11.393.24.577.382A4.987 4.987 0 0 1 11.5 8.5z" opacity=".2" class="colorffffff svgShape"></path><path fill="#595bd4" d="M19 4c-.388 0-.767.057-1.139.144C16.741 1.654 14.25 0 11.5 0 7.88 0 4.888 2.737 4.549 6.282A3.998 3.998 0 0 0 2 10c0 .23.034.469.084.716A4.491 4.491 0 0 0 0 14.5C0 16.981 2.019 19 4.5 19h11c1.93 0 3.5-1.57 3.5-3.5a3.46 3.46 0 0 0-.351-1.5H19c2.757 0 5-2.243 5-5s-2.243-5-5-5z" class="color303c42 svgShape"></path><path fill="#167ffc" d="M15.5 18h-11C2.57 18 1 16.43 1 14.5S2.57 11 4.5 11c.804 0 1.56.265 2.187.767a.5.5 0 1 0 .625-.78 4.453 4.453 0 0 0-.656-.434A4.994 4.994 0 0 1 11 8c2.412 0 4.428 1.73 4.88 4.038-.126-.013-.25-.038-.38-.038a.5.5 0 1 0 0 1c1.378 0 2.5 1.122 2.5 2.5S16.878 18 15.5 18z" class="color64b5f6 svgShape"></path><path fill="#53d86a" d="M6.202 6.044A5.962 5.962 0 0 1 12 1.5a5.95 5.95 0 0 1 3.996 1.565A5.978 5.978 0 0 0 11.5 1C8.512 1 6.017 3.171 5.578 6.043 5.718 6.028 5.855 6 6 6c.072 0 .14.016.202.044z" opacity=".2" class="colorffffff svgShape"></path><path fill="#167ffc" d="M3 10c0-1.654 1.346-3 3-3a.5.5 0 1 0 0-1c-.145 0-.281.028-.422.043C6.018 3.17 8.512 1 11.5 1c2.323 0 4.429 1.378 5.41 3.461a4.971 4.971 0 0 0-.7.39.5.5 0 1 0 .559.828A3.978 3.978 0 0 1 19 5c2.206 0 4 1.794 4 4s-1.794 4-4 4h-1.058a3.51 3.51 0 0 0-.994-.677C16.608 9.313 14.06 7 11 7a5.992 5.992 0 0 0-5.278 3.185A4.482 4.482 0 0 0 4.5 10c-.52 0-1.012.106-1.478.27C3.012 10.178 3 10.086 3 10z" class="color64b5f6 svgShape"></path><path fill="#595bd4" d="M21.722 19.052a.496.496 0 0 0-.526.051l-1.554 1.19c-.409.289-.642.728-.642 1.207 0 .827.673 1.5 1.5 1.5s1.5-.673 1.5-1.5v-2a.5.5 0 0 0-.278-.448z" class="color303c42 svgShape"></path><path d="M16.938 13.462c.039.174.062.353.062.538 0 1.378-1.122 2.5-2.5 2.5h-11a3.47 3.47 0 0 1-2.3-.883C1.668 16.997 2.962 18 4.5 18h11c1.378 0 2.5-1.122 2.5-2.5 0-.842-.422-1.585-1.062-2.038z" opacity=".1" fill="#000000" class="color000000 svgShape"></path><path fill="#bbbcfb" d="M21 21.5a.5.5 0 0 1-1 0c0-.207.14-.336.225-.395l.016-.013.759-.58v.988z" class="colorbbdefb svgShape"></path><path fill="#595bd4" d="M4.5 24a.498.498 0 01-.49-.598l1.5-7.5a.5.5 0 01.714-.35l1.358.68.42-3.787a.502.502 0 01.656-.42l3 1c.258.086.4.362.32.622l-2 6.5a.497.497 0 01-.701.3l-1.606-.802-2.755 4.132A.5.5 0 014.5 24zM15.5 22c-.827 0-1.5-.673-1.5-1.5 0-.478.233-.917.64-1.208l1.556-1.189A.498.498 0 0117 18.5v2c0 .827-.673 1.5-1.5 1.5z" class="color303c42 svgShape"></path><path fill="#bbbcfb" d="M16 19.512l-.759.58A.492.492 0 0 0 15 20.5a.5.5 0 0 0 1 0v-.988z" class="colorbbdefb svgShape"></path><path fill="#595bd4" d="M14.937 19.695h.01-.01z" class="color303c42 svgShape"></path><path d="M20.288 5.232c.447.645.712 1.425.712 2.268 0 2.206-1.794 4-4 4h-.223c.07.27.139.54.17.823.37.169.707.396.995.677H19c2.206 0 4-1.794 4-4 0-1.752-1.14-3.229-2.712-3.768z" opacity=".1" fill="#000000" class="color000000 svgShape"></path><path fill="#fe9526" d="M6.362 16.74l-.876 4.38 1.598-2.397a.5.5 0 0 1 .64-.17l1.472.736 1.683-5.47-1.95-.65-.431 3.886a.5.5 0 0 1-.721.392l-1.415-.707z" class="colorffca28 svgShape"></path><linearGradient id="a" x1="1.806" x2="23.104" y1="9.534" y2="19.465" gradientUnits="userSpaceOnUse"><stop offset="0" stop-color="#ffffff" stop-opacity=".2" class="stopColorffffff svgShape"></stop><stop offset="1" stop-color="#ffffff" stop-opacity="0" class="stopColorffffff svgShape"></stop></linearGradient><path fill="url(#a)" d="M12.722 20.052a.495.495 0 0 0-.526.051l-1.555 1.189c-.408.29-.641.73-.641 1.208 0 .827.673 1.5 1.5 1.5s1.5-.673 1.5-1.5v-2a.5.5 0 0 0-.278-.448zm-10 0a.495.495 0 0 0-.526.051L.641 21.292c-.408.29-.641.73-.641 1.208 0 .827.673 1.5 1.5 1.5S3 23.327 3 22.5v-2a.5.5 0 0 0-.278-.448zM19 4c-.388 0-.767.057-1.139.144C16.741 1.654 14.25 0 11.5 0 7.88 0 4.888 2.737 4.549 6.282A3.998 3.998 0 0 0 2 10c0 .23.034.469.084.716A4.491 4.491 0 0 0 0 14.5C0 16.981 2.019 19 4.5 19h.39l-.88 4.402a.5.5 0 0 0 .906.375l2.755-4.132 1.605.802a.497.497 0 0 0 .702-.3L10.33 19h4.693l-.382.292c-.408.29-.641.73-.641 1.208 0 .827.673 1.5 1.5 1.5s1.5-.673 1.5-1.5v-1.851a3.495 3.495 0 0 0 2-3.149 3.46 3.46 0 0 0-.351-1.5H19c2.757 0 5-2.243 5-5s-2.243-5-5-5zm2.722 15.052a.496.496 0 0 0-.526.051l-1.554 1.19c-.409.289-.642.728-.642 1.207 0 .827.673 1.5 1.5 1.5s1.5-.673 1.5-1.5v-2a.5.5 0 0 0-.278-.448z"></path></svg>