<svg xmlns="http://www.w3.org/2000/svg" enable-background="new 0 0 512 512" viewBox="0 0 512 512"><path fill="#fe9526" d="M430.9,47.7c0,0.1,0,0.2,0,0.3c-0.7,23.4-78.8,42.4-174.9,42.4c-96.3,0-175-19-175-42.4
			v-0.3C81,24.1,159.3,5,256,5C352.6,5,430.9,24.1,430.9,47.7z" class="colorc6c2e1 svgShape"></path><path fill="#53d86a" d="M104.8,69.2c30.3,12.7,86.8,21.2,151.3,21.2c64.5,0,120.7-8.5,151-21.2
			C376.8,56.5,320.5,48,256,48C191.5,48,135.1,56.5,104.8,69.2z" class="colorb0add6 svgShape"></path><path fill="#167ffc" d="M423.2,212.3C376.3,315.2,257.8,332,241.6,425.9c-5.1,29.6,1.8,56.3,9.2,75.1
			c1.5,3.9-2.5,7.6-6.2,5.7c-123-61.4-150.8-114-152-151.8c-1.8-56,54.3-92.8,35-153c-9.8-30.7-30.6-40.7-42-86
			c-6.9-27.6-6.3-52-4.6-68h0c0.6,23.5,78.7,42.4,174.9,42.4c96.2,0,174.2-18.9,174.9-42.4C450.9,129,437.6,180.8,423.2,212.3z" class="colora59aa0 svgShape"></path><path fill="#595bd4" d="M430.9,48c-0.6,21-63.3,38.4-145.6,41.8v95.2c0,27.4-7.9,54.3-22.8,77.3l-41.4,63.9
			c-26.2,40.4-71.1,64.8-119.3,64.8h0c15.7,32.7,55,72,142.8,115.8c3.7,1.9,7.8-1.8,6.2-5.7c-7.4-18.9-14.3-45.6-9.2-75.1
			c16.2-93.9,134.7-110.7,181.6-213.7C437.6,180.8,450.9,129,430.9,48z" class="color7f757b svgShape"></path><path fill="#fe9526" d="M256 216.4c-68 0-130.5-4.5-178.1-12.6-23.4-4-41.8-8.6-54.8-13.9-15.4-6.2-22.8-13.1-22.8-21.3 0-7.9 7.1-14.8 21.8-20.9 12.4-5.1 30-9.7 52.3-13.7l1.7 9.8c-52 9.2-65.9 19.8-65.9 24.7 0 5 14.6 15.9 69.3 25.3 47.1 8 109.4 12.4 176.4 12.4V216.4zM256 154.4c-30.4 0-60-.9-88.2-2.7l.6-10c28 1.8 57.4 2.7 87.6 2.7 66.7 0 129.4-4.4 176.4-12.4 54.7-9.3 69.3-20.3 69.3-25.3 0-3.5-8.6-11.6-41-19.5l2.4-9.7c32.7 8 48.6 17.6 48.6 29.2 0 8.1-7.5 15.1-22.8 21.3-13 5.2-31.4 9.9-54.8 13.9C386.5 149.9 323.2 154.4 256 154.4zM205 365.7c-50 0-96.5-3.3-131.7-9.3-52.3-8.9-58.4-19.8-58.4-27.2 0-7.5 6.2-18.5 59.5-27.4l1.7 9.9c-41.8 7-51.2 15.2-51.2 17.6 0 2.3 9.1 10.4 50 17.4 34.7 5.9 81 9.2 130 9.2V365.7zM260.1 289.3c-33.6 0-65.8-1.3-95.7-3.9l.9-10c29.6 2.5 61.5 3.8 94.9 3.8 56.4 0 109.4-3.7 149.2-10.5 47.6-8.1 58-17.6 58-20.6 0-.1-.4-7.1-31.3-15l2.5-9.7c26.4 6.8 38.8 14.7 38.8 24.7 0 7.2-6.5 13.3-19.8 18.7-11 4.4-26.7 8.4-46.5 11.8C370.7 285.5 317.1 289.3 260.1 289.3zM177 432.6v-10c28 0 55.3-1.8 76.1-5 24-3.7 30.8-7.9 32.5-9.4-1.2-1-4.5-3.1-13.6-5.6l2.6-9.7c14.9 4 21.5 8.7 21.5 15.2 0 5.7-4.3 13-37.6 18.7C236.7 430.5 208 432.6 177 432.6zM205.1 486.9c-23.4 0-45.4-1.6-62-4.4-20.7-3.5-29.5-8.1-29.5-15.4 0-6.2 6.7-10.5 21.9-13.9l2.2 9.8c-7.3 1.6-11 3.2-12.8 4.1 6.9 3.8 34.1 9.7 80.3 9.7 13.6 0 26.6-.5 38.6-1.6l.9 10C232.3 486.4 219 486.9 205.1 486.9z" class="colorc6c2e1 svgShape"></path><rect width="10" height="10" x="239.1" y="319.9" fill="#53d86a" class="colorb0add6 svgShape"></rect><rect width="10" height="10" x="308.6" y="174.2" fill="#53d86a" class="colorb0add6 svgShape"></rect><rect width="10" height="10" x="59.3" y="228.3" fill="#53d86a" class="colorb0add6 svgShape"></rect><rect width="10" height="10" x="474.2" y="169.2" fill="#53d86a" class="colorb0add6 svgShape"></rect><rect width="10" height="10" x="456.5" y="186.9" fill="#53d86a" class="colorb0add6 svgShape"></rect><rect width="10" height="10" x="434.8" y="425.4" fill="#53d86a" class="colorb0add6 svgShape"></rect><rect width="10" height="10" x="417" y="407.7" fill="#53d86a" class="colorb0add6 svgShape"></rect><rect width="10" height="10" x="46.6" y="434.3" fill="#53d86a" class="colorb0add6 svgShape"></rect><rect width="10" height="10" x="64.3" y="416.6" fill="#53d86a" class="colorb0add6 svgShape"></rect><path fill="#232450" d="M256 216.4c-68 0-130.5-4.5-178.1-12.6-23.4-4-41.8-8.6-54.8-13.9-15.4-6.2-22.8-13.1-22.8-21.3 0-7.9 7.1-14.8 21.8-20.9 12.4-5.1 30-9.7 52.3-13.7l1.7 9.8c-52 9.2-65.9 19.8-65.9 24.7 0 5 14.6 15.9 69.3 25.3 47.1 8 109.4 12.4 176.4 12.4V216.4zM256 154.4c-30.4 0-60-.9-88.2-2.7l.6-10c28 1.8 57.4 2.7 87.6 2.7 66.7 0 129.4-4.4 176.4-12.4 54.7-9.3 69.3-20.3 69.3-25.3 0-3.5-8.6-11.6-41-19.5l2.4-9.7c32.7 8 48.6 17.6 48.6 29.2 0 8.1-7.5 15.1-22.8 21.3-13 5.2-31.4 9.9-54.8 13.9C386.5 149.9 323.2 154.4 256 154.4zM205 365.7c-50 0-96.5-3.3-131.7-9.3-52.3-8.9-58.4-19.8-58.4-27.2 0-7.5 6.2-18.5 59.5-27.4l1.7 9.9c-41.8 7-51.2 15.2-51.2 17.6 0 2.3 9.1 10.4 50 17.4 34.7 5.9 81 9.2 130 9.2V365.7zM260.1 289.3c-33.6 0-65.8-1.3-95.7-3.9l.9-10c29.6 2.5 61.5 3.8 94.9 3.8 56.4 0 109.4-3.7 149.2-10.5 47.6-8.1 58-17.6 58-20.6 0-.1-.4-7.1-31.3-15l2.5-9.7c26.4 6.8 38.8 14.7 38.8 24.7 0 7.2-6.5 13.3-19.8 18.7-11 4.4-26.7 8.4-46.5 11.8C370.7 285.5 317.1 289.3 260.1 289.3zM177 432.6v-10c28 0 55.3-1.8 76.1-5 24-3.7 30.8-7.9 32.5-9.4-1.2-1-4.5-3.1-13.6-5.6l2.6-9.7c14.9 4 21.5 8.7 21.5 15.2 0 5.7-4.3 13-37.6 18.7C236.7 430.5 208 432.6 177 432.6zM256.1 95.4c-47 0-91.4-4.5-124.8-12.6C94.7 73.9 76 62.2 76 47.9v-.3c0-13.2 15.9-24.2 47-32.9C151 7 189.4 1.9 231.1.4l.2 10C136.6 13.7 86 34.2 86 47.7v.3c0 15.6 64.8 37.4 170 37.4 46.1 0 89.5-4.4 122.1-12.3 34.9-8.5 47.6-18.6 47.8-25.3 0-.1 0-.1 0-.2-.1-6-10.4-15.1-39.4-23.3-27.1-7.6-64.5-12.6-105.4-14l.4-10c76.9 2.7 154.4 18.4 154.4 47.3 0 .2 0 .4 0 .6-.5 14.2-19.1 25.8-55.4 34.6C347.2 90.9 303 95.4 256.1 95.4z" class="color50232d svgShape"></path><path fill="#232450" d="M246.2,512c-1.5,0-3-0.3-4.4-1c-56.1-28.1-97.4-56.9-122.7-85.8
				c-20.1-22.9-30.7-46.5-31.5-70.1c-0.8-25.7,9.8-47.3,20.2-68.2c13-26.4,25.3-51.4,15.1-83.4c-4-12.5-10.1-21.6-16.5-31.2
				c-8.8-13.3-18.9-28.4-25.6-55.1c-5.6-22.4-7.2-45.8-4.7-69.7c0.3-2.5,2.4-4.5,5-4.5c2.7,0,5,2.2,5,4.9
				c0.2,6.7,12.8,16.8,47.8,25.3c32.6,7.9,76,12.3,122.2,12.3c46.1,0,89.5-4.4,122.1-12.3c35-8.5,47.6-18.6,47.8-25.3
				c0.1-2.5,2-4.6,4.5-4.8c2.5-0.3,4.8,1.3,5.4,3.8c15.9,64.6,13.2,121-8,167.5c-22.8,50.1-62.9,80.8-98.3,107.9
				c-40.1,30.7-74.8,57.2-82.9,104.6c-3.9,22.8-1,47,8.7,71.9c1.5,3.8,0.5,8-2.5,10.8C250.9,511.1,248.5,512,246.2,512z M85,63.7
				c-0.5,17.4,1.3,34.5,5.5,51c6.3,25,15.4,38.7,24.2,52c6.8,10.2,13.3,19.9,17.7,33.7c11.5,35.9-2.3,63.8-15.6,90.9
				c-10.2,20.7-19.9,40.3-19.1,63.5c1.6,49.1,51.4,98.5,148.1,147c-10.2-26.5-13.2-52.2-9-76.7c8.8-51.2,46.6-80.2,86.7-110.8
				c36.1-27.7,73.5-56.3,95.3-104.1l0,0C437.5,168.8,441,119,429,61.9c-8.5,8.1-24.7,15.1-48.5,20.9c-33.4,8.1-77.6,12.5-124.5,12.5
				c-46.9,0-91.2-4.5-124.5-12.6C109.4,77.5,93.9,71.1,85,63.7z" class="color50232d svgShape"></path><path fill="#232450" d="M205.1,486.9c-23.4,0-45.4-1.6-62-4.4c-20.7-3.5-29.5-8.1-29.5-15.4
				c0-6.2,6.7-10.5,21.9-13.9l2.2,9.8c-7.3,1.6-11,3.2-12.8,4.1c6.9,3.8,34.1,9.7,80.3,9.7c13.6,0,26.6-0.5,38.6-1.6l0.9,10
				C232.3,486.4,219,486.9,205.1,486.9z" class="color50232d svgShape"></path><rect width="10" height="10" x="239.1" y="319.9" fill="#232450" class="color50232d svgShape"></rect><rect width="10" height="10" x="308.6" y="174.2" fill="#232450" class="color50232d svgShape"></rect><rect width="10" height="10" x="59.3" y="228.3" fill="#232450" class="color50232d svgShape"></rect><rect width="10" height="10" x="474.2" y="169.2" fill="#232450" class="color50232d svgShape"></rect><rect width="10" height="10" x="456.5" y="186.9" fill="#232450" class="color50232d svgShape"></rect><rect width="10" height="10" x="434.8" y="425.4" fill="#232450" class="color50232d svgShape"></rect><rect width="10" height="10" x="417" y="407.7" fill="#232450" class="color50232d svgShape"></rect><rect width="10" height="10" x="46.6" y="434.3" fill="#232450" class="color50232d svgShape"></rect><rect width="10" height="10" x="64.3" y="416.6" fill="#232450" class="color50232d svgShape"></rect><rect width="10" height="10" x="251.3" fill="#232450" class="color50232d svgShape"></rect><path fill="#232450" d="M256.1,95.4c-62.7,0-121.4-8.3-153.2-21.6c-1.9-0.8-3.1-2.6-3.1-4.6s1.2-3.8,3.1-4.6
				C135.2,51.1,192.5,43,256,43c50.6,0,98.9,5.3,132.5,14.6l-2.7,9.6C353,58.2,305.7,53,256,53c-53.6,0-104.1,6.1-136.4,16.2
				c32.3,10.1,82.8,16.2,136.6,16.2c61.3,0,118.4-8,149.1-20.8l3.9,9.2C376.8,87.3,319.6,95.4,256.1,95.4z" class="color50232d svgShape"></path></svg>