<svg xmlns="http://www.w3.org/2000/svg" viewBox="0 0 24 24"><path fill="#303C42" d="M9 20.5a.5.5 0 0 0-.5-.5c-2.472 0-3.909.328-5.391 2.188a.5.5 0 0 0 .782.624C5.133 21.252 6.267 21 8.5 21a.5.5 0 0 0 .5-.5zM13.25 19.5c-.91 0-1.53.576-1.598.641-.197.191-.202.504-.012.703s.505.205.705.018c.004-.004.392-.362.905-.362.36 0 .75.382.75 1 0 .721-.86 1.5-2.25 1.5-.672 0-1.081-.179-1.598-.405C9.515 22.315 8.792 22 7.5 22c-1.41 0-2.349 1.136-2.388 1.185a.5.5 0 0 0 .775.632C5.894 23.809 6.573 23 7.5 23c1.083 0 1.65.248 2.251.51.55.241 1.118.49 1.999.49 2.034 0 3.25-1.271 3.25-2.5 0-1.103-.785-2-1.75-2zM17.842 20.25c-.569-.285-1.28-.254-1.375-.249a.5.5 0 0 0-.466.532.507.507 0 0 0 .532.466c.145-.01.389.006.606.056a1.73 1.73 0 0 0 .367 1.894c.336.336.865.423 1.423.515.465.076.99.162 1.217.39A.5.5 0 0 0 21 23.5c0-1.234-.383-2.325-1.051-2.994a1.727 1.727 0 0 0-2.107-.255z"/><path fill="#7CB342" d="M19.092 22.477c-.325-.053-.77-.126-.88-.235a.73.73 0 0 1 0-1.03.73.73 0 0 1 1.03 0c.137.139.516.583.68 1.434a7.36 7.36 0 0 0-.83-.169z"/><path fill="#303C42" d="M23.5 7h-1.525a5.474 5.474 0 0 0-1.251-3.017l1.08-1.08a.5.5 0 1 0-.708-.706l-1.08 1.08A5.474 5.474 0 0 0 17 2.024V.5a.5.5 0 1 0-1 0v1.54a5.426 5.426 0 0 0-3 1.253l-1.096-1.096a.5.5 0 1 0-.707.707l1.099 1.099a5.509 5.509 0 0 0-.796 1.3A6.904 6.904 0 0 0 9.5 5a6.986 6.986 0 0 0-6.946 6.28A3.999 3.999 0 0 0 0 15c0 2.206 1.794 4 4 4h13c2.757 0 5-2.243 5-5 0-1.211-.45-2.308-1.17-3.174A5.447 5.447 0 0 0 21.954 8H23.5a.5.5 0 1 0 0-1z"/><path fill="#FFCA28" d="M20.115 10.12A4.95 4.95 0 0 0 17 9c-.388 0-.767.057-1.139.144a7.019 7.019 0 0 0-3.43-3.482C13.151 4.057 14.726 3 16.5 3 18.981 3 21 5.019 21 7.5c0 .942-.322 1.85-.885 2.62z"/><path fill="#64B5F6" d="M21 14c0 2.206-1.794 4-4 4H4c-1.654 0-3-1.346-3-3s1.346-3 3-3a.5.5 0 1 0 0-1c-.142 0-.276.027-.413.042A5.99 5.99 0 0 1 9.5 6c2.323 0 4.428 1.378 5.409 3.461a4.999 4.999 0 0 0-.699.389.5.5 0 0 0 .559.83A3.98 3.98 0 0 1 17 10c2.206 0 4 1.794 4 4z"/><path d="M19.268 10.711c.14.407.232.836.232 1.289 0 2.206-1.794 4-4 4h-13a2.962 2.962 0 0 1-1.434-.382A3.004 3.004 0 0 0 4 18h13c2.206 0 4-1.794 4-4a3.995 3.995 0 0 0-1.732-3.289z" opacity=".1"/><linearGradient id="a" x1="2.826" x2="23.711" y1="8.059" y2="17.798" gradientUnits="userSpaceOnUse"><stop offset="0" stop-color="#FFF" stop-opacity=".2"/><stop offset="1" stop-color="#FFF" stop-opacity="0"/></linearGradient><path fill="url(#a)" d="M9 20.5a.5.5 0 0 0-.5-.5c-2.472 0-3.909.328-5.391 2.188a.5.5 0 0 0 .782.624C5.133 21.252 6.267 21 8.5 21a.5.5 0 0 0 .5-.5zm4.25-1c-.91 0-1.53.576-1.598.641-.197.191-.202.504-.012.703s.505.205.705.018c.004-.004.392-.362.905-.362.36 0 .75.382.75 1 0 .721-.86 1.5-2.25 1.5-.672 0-1.081-.179-1.598-.405C9.515 22.315 8.792 22 7.5 22c-1.41 0-2.349 1.136-2.388 1.185a.5.5 0 0 0 .775.632C5.894 23.809 6.573 23 7.5 23c1.083 0 1.65.248 2.251.51.55.241 1.118.49 1.999.49 2.034 0 3.25-1.271 3.25-2.5 0-1.103-.785-2-1.75-2zm4.592.75c-.569-.285-1.28-.254-1.375-.249a.5.5 0 0 0-.466.532.507.507 0 0 0 .532.466c.145-.01.389.006.606.056a1.73 1.73 0 0 0 .367 1.894c.336.336.865.423 1.423.515.465.076.99.162 1.217.39A.5.5 0 0 0 21 23.5c0-1.234-.383-2.325-1.051-2.994a1.727 1.727 0 0 0-2.107-.255zM23.5 7h-1.525a5.474 5.474 0 0 0-1.251-3.017l1.08-1.08a.5.5 0 1 0-.708-.706l-1.08 1.08A5.474 5.474 0 0 0 17 2.024V.5a.5.5 0 1 0-1 0v1.54a5.426 5.426 0 0 0-3 1.253l-1.096-1.096a.5.5 0 1 0-.707.707l1.099 1.099a5.509 5.509 0 0 0-.796 1.3A6.904 6.904 0 0 0 9.5 5a6.986 6.986 0 0 0-6.946 6.28A3.999 3.999 0 0 0 0 15c0 2.206 1.794 4 4 4h13c2.757 0 5-2.243 5-5 0-1.211-.45-2.308-1.17-3.174A5.447 5.447 0 0 0 21.954 8H23.5a.5.5 0 1 0 0-1z"/></svg>