<svg xmlns="http://www.w3.org/2000/svg" viewBox="0 0 1920 1080" id="backpack"><path fill="#2A94F4" d="M1080.45 397.707s-396.891 136.364-55.448 177.289S1489.015 1080 1489.015 1080H356.707s477.236-416.561 344.385-490.345 367.685-207.23 367.685-207.23l46.693 4.474-35.02 10.808z" opacity=".1"></path><path fill="#2A94F4" d="M61.328 409.439S571.726 73.873 625.832 79.034c32.917 3.14 98.58 11.84 163.598 39.551 233.712 99.61 312.814 236.636 397.31 283.435 0 0-1092.291 8.584-1125.412 7.419z" opacity=".1"></path><path fill="#2A94F4" d="M562.475 399.996s586.039-376.592 648.279-370.654c37.866 3.612 113.401 13.62 188.195 45.498 268.85 114.586 359.846 272.214 457.046 326.049.001 0-1255.418.446-1293.52-.893z" opacity=".1"></path><path fill="#2A94F4" d="M1920 400.127s-393.168-142.019-680.906-104.679-518.002 152.666-781.761 62.056-332.7-35.279-442.524 42.492l1905.191.131z" opacity=".15"></path><g opacity=".15"><path fill="#2A94F4" d="m1512.148 399.996 33.09-87.567 33.089 87.567z"></path><path fill="#2A94F4" d="m1555.578 399.996 33.089-87.567 33.089 87.567z"></path><path fill="#2A94F4" d="m1601.076 399.996 33.089-87.567 33.089 87.567zM1384.961 399.996l33.09-87.567 33.089 87.567z"></path><path fill="#2A94F4" d="m1428.391 399.996 33.089-87.567 33.09 87.567z"></path><path fill="#2A94F4" d="m1473.889 399.996 33.089-87.567 33.089 87.567zM1761.352 399.996l33.089-87.567 33.09 87.567z"></path><path fill="#2A94F4" d="m1804.782 399.996 33.089-87.567 33.089 87.567z"></path><path fill="#2A94F4" d="m1850.279 399.996 33.09-87.567 33.089 87.567zM1634.165 399.996l33.089-87.567 33.09 87.567z"></path><path fill="#2A94F4" d="m1677.595 399.996 33.089-87.567 33.089 87.567z"></path><path fill="#2A94F4" d="m1723.092 399.996 33.09-87.567 33.089 87.567zM1007.913 399.996l33.089-87.567 33.089 87.567z"></path><path fill="#2A94F4" d="m1051.342 399.996 33.09-87.567 33.089 87.567z"></path><path fill="#2A94F4" d="m1096.84 399.996 33.089-87.567 33.09 87.567zM880.726 399.996l33.089-87.567 33.089 87.567z"></path><path fill="#2A94F4" d="m924.155 399.996 33.09-87.567 33.089 87.567z"></path><path fill="#2A94F4" d="m969.653 399.996 33.089-87.567 33.09 87.567zM1257.116 399.996l33.09-87.567 33.089 87.567z"></path><path fill="#2A94F4" d="m1300.546 399.996 33.089-87.567 33.09 87.567z"></path><path fill="#2A94F4" d="m1346.044 399.996 33.089-87.567 33.089 87.567zM1129.929 399.996l33.09-87.567 33.089 87.567z"></path><path fill="#2A94F4" d="m1173.359 399.996 33.089-87.567 33.09 87.567z"></path><path fill="#2A94F4" d="m1218.857 399.996 33.089-87.567 33.089 87.567z"></path></g><g opacity=".15"><path fill="#2A94F4" d="m646.232 399.996 33.09-87.567 33.089 87.567z"></path><path fill="#2A94F4" d="m689.662 399.996 33.089-87.567 33.09 87.567z"></path><path fill="#2A94F4" d="m735.16 399.996 33.089-87.567 33.09 87.567zM519.045 399.996l33.09-87.567 33.089 87.567z"></path><path fill="#2A94F4" d="m562.475 399.996 33.089-87.567 33.09 87.567z"></path><path fill="#2A94F4" d="m607.973 399.996 33.089-87.567 33.09 87.567zM895.436 399.996l33.089-87.567 33.09 87.567z"></path><path fill="#2A94F4" d="m938.866 399.996 33.089-87.567 33.089 87.567z"></path><path fill="#2A94F4" d="m984.364 399.996 33.089-87.567 33.089 87.567zM768.249 399.996l33.09-87.567 33.089 87.567z"></path><path fill="#2A94F4" d="m811.679 399.996 33.089-87.567 33.089 87.567z"></path><path fill="#2A94F4" d="m857.177 399.996 33.089-87.567 33.089 87.567zM141.997 399.996l33.089-87.567 33.089 87.567z"></path><path fill="#2A94F4" d="m185.427 399.996 33.089-87.567 33.089 87.567z"></path><path fill="#2A94F4" d="m230.924 399.996 33.09-87.567 33.089 87.567zM14.81 399.996l33.089-87.567 33.09 87.567z"></path><path fill="#2A94F4" d="m58.24 399.996 33.089-87.567 33.089 87.567z"></path><path fill="#2A94F4" d="m103.737 399.996 33.09-87.567 33.089 87.567zM391.201 399.996l33.089-87.567 33.089 87.567z"></path><path fill="#2A94F4" d="m434.63 399.996 33.09-87.567 33.089 87.567z"></path><path fill="#2A94F4" d="m480.128 399.996 33.089-87.567 33.09 87.567zM264.014 399.996l33.089-87.567 33.089 87.567z"></path><path fill="#2A94F4" d="m307.443 399.996 33.09-87.567 33.089 87.567z"></path><path fill="#2A94F4" d="m352.941 399.996 33.089-87.567 33.09 87.567z"></path></g><path fill="#0B4870" d="M1068.266 350.702s54.352-35.016 35.629-79.914-85.79-62.069-110.287-6.467c0 0-37.689-52.268-66.854-10.758-29.165 41.51 2.222 51.367 14.402 58.38 34.944 20.122-20.614 58.981-35.298 17.298 0 0-10.618 25.08 6.777 34.451 24.631 13.268 72.051 16.653 63.465-18.073-10.142-41.018 30.703-27.989 29.009-48.813 0 0-5.91 3.845-5.076 15.136 1.621 21.961 16.953 56.754 68.233 38.76z"></path><path fill="#AD6F53" d="M993.609 382.034s28.402-47.638 33.284-64.581l20.157 30.143s-4.722 42.598-13.012 46.713c-8.29 4.115-40.429-12.275-40.429-12.275z"></path><path fill="#0E538C" d="M976.689 697.107s34.078 123.891 35.138 136.057c1.061 12.165-14.974 63.273 9.384 133.133s27.972 77.685 27.972 77.685h18.399s-20.128-146.527-12.34-192.271-26.585-227.871-31.066-253.077l-152.608-30.239s-11.495 56.54 15.842 104.491c9.891 17.35 24.32 94.151 23.906 112.441-.415 18.289-37.952 68.874-36.795 150.421.164 11.522-3.256 108.234-3.256 108.234h16.096s68.139-211.795 70.728-246.871 18.6-100.004 18.6-100.004z"></path><path fill="#0B4870" d="M985.49 372.998s62.407-17.496 80.026 49.128c0 0 12.031 24.869-14.23 89.252-26.262 64.383-23.81 78.412-19.953 113.755 0 0-96.904 57.315-148.63 30.26-51.726-27.054 41.581-257.433 102.787-282.395z"></path><path fill="#FFBE55" d="M1079.241 445.582s-39.489-38.53-102.787 0c-12.99 7.907-35.677 71.705-12.99 120.86 3.389 7.342 41.793-15.249 66.642-59.865l1.694 9.036s-11.295 37.275-71.161 72.29c0 0-6.01 42.724-109.565 51.394-15.178 1.271-60.289-42.146-35.06-94.093.617-1.271.308-2.814.511-4.221 2.61-18.046 10.757-36.005 27.772-51.349 0 0 21.461-39.534 48.57-53.088 0 0-3.243-36.097 37.275-52.523 20.896-8.471 36.145 3.953 36.145 3.953s1.61-6.238 6.783-13.874c0 0 7.822-8.734 3.947 22.91-1.312 10.71 10.796 15.249 57.041 15.249 22.593 0 55.914 21.461 45.183 33.321z"></path><path fill="#FFF" d="M816.976 538.204s-1.422 11.86 44.265 8.471v9.601s-30.944 5.648-45.687-6.212c.001 0-3.874-10.166 1.422-11.86z"></path><path fill="#0B4870" d="M1086.583 445.3s36.71 37.557 32.474 92.904-24.567 48.57-24.567 48.57-40.567-116.907-7.907-141.474z"></path><path fill="#0E538C" d="M1013.53 430.331s-4.602 47.161 18.271 85.283 49.135 67.772 62.689 71.161c13.554 3.389 8.471-61.842 8.471-61.842s-19.202-64.383-29.615-83.93c-7.577-14.224-6.271-24.58-59.816-10.672z"></path><path fill="#B97A59" d="M1072.464 423.756s9.534 2.98 18.18 26.24l-9.33 9.565s-13.07-29.786-19.008-33.742 10.158-2.063 10.158-2.063zM1083.78 264.32s16.439 20.744 12.133 52.839c-4.305 32.095-36.009 64.972-75.148 21.527 0 0-7.437-9.394-8.611-19.179 0 0-14.482-9.394-7.045-22.701 7.437-13.308 16.439-1.566 15.656 4.697-.783 6.262 1.957 14.09 3.523 5.871s6.262-19.178 21.135-28.572c14.873-9.394 16.83 10.568 27.789 1.957 10.96-8.611 10.568-16.439 10.568-16.439z"></path><path fill="#FFBE55" d="M1065.073 1024.544c4.567 9.525 10.78 11.784 23.205 12.349 12.425.565 19.767 4.518 20.896 10.166 1.13 5.648 0 14.119 0 14.119h-67.772s-5.581-14.499 3.14-29.276c0 0 13.239 9.704 21.71 1.982l-1.179-9.34zM893.56 1024.544c4.567 9.525 8.345 11.784 20.77 12.349 12.425.565 19.767 4.518 20.896 10.166 1.13 5.648 0 14.119 0 14.119h-67.772s-5.581-14.499 3.139-29.276c0 0 11.5 9.785 19.972 2.063l2.995-9.421z"></path><path fill="#CCE9FF" d="M1639.4 397.311c3.217 0 3.223-5 0-5-3.217 0-3.223 5 0 5z"></path></svg>